<svg xmlns="http://www.w3.org/2000/svg" width="21" height="24" viewBox="0 0 21 24">
    <g fill="none" fill-rule="evenodd">
        <path d="M0 0H24V24H0z" transform="translate(-1)"/>
        <path fill="#323746" d="M19.373 19.63c-.735 1.109-1.455 1.894-2.265 2.473-.379.27-.743.425-1.113.473-.335.043-.683-.044-1.01-.145-.406-.125-.818-.278-1.218-.425l-.149-.055c-1.199-.442-2.439-.428-3.686.04-.14.052-.282.107-.423.162-.267.103-.536.207-.807.3-.822.28-1.544.128-2.275-.477-.804-.665-1.513-1.524-2.3-2.785-.917-1.472-1.502-3.046-1.738-4.678-.274-1.886-.183-3.29.293-4.555C3.424 7.991 4.75 6.86 6.734 6.5c.355-.065.704-.097 1.045-.097.763 0 1.488.161 2.166.482.107.05.217.093.327.136.077.03.153.058.227.092.73.335 1.49.348 2.325.04l.36-.134c.495-.187.962-.364 1.434-.457 1.797-.357 3.288-.072 4.558.869.206.153.4.332.601.523-.23.198-.451.391-.663.606-1.083 1.095-1.633 2.382-1.636 3.827-.003 1.771.709 3.23 2.115 4.338.296.233.612.438.917.636l.022.014c-.31.804-.698 1.561-1.16 2.256M11.897 5.28c.033-.788.339-1.524.937-2.25.74-.9 1.568-1.445 2.528-1.667l.08-.018c-.012.93-.386 1.871-1.07 2.655-.682.782-1.577 1.29-2.476 1.425-.001-.05 0-.098.001-.145m9.729 11.337c-.149-.101-.296-.197-.442-.292-.295-.191-.574-.373-.826-.571-1.109-.873-1.646-1.973-1.644-3.365.003-1.124.42-2.092 1.279-2.96.215-.218.46-.427.718-.648.129-.11.261-.223.396-.342.132-.117.208-.283.209-.459.001-.175-.072-.343-.202-.46-.115-.107-.23-.216-.343-.325-.266-.257-.542-.522-.859-.756-1.426-1.058-3.123-1.45-5.05-1.172.153-.142.3-.294.441-.454 1.082-1.241 1.56-2.808 1.31-4.298-.027-.163-.119-.308-.254-.403-.135-.095-.302-.131-.465-.102l-.242.041c-.193.033-.382.065-.569.108-1.235.287-2.283.969-3.203 2.086-.775.942-1.173 1.918-1.217 2.984-.009.22.005.426.019.625-.07-.027-.14-.054-.208-.086-1.218-.576-2.55-.74-3.96-.484-2.414.438-4.092 1.864-4.987 4.239-.553 1.47-.665 3.064-.36 5.168.26 1.802.905 3.536 1.914 5.154.578.928 1.392 2.117 2.56 3.083.72.597 1.489.897 2.293.897.381 0 .77-.068 1.167-.203.288-.098.572-.208.855-.317.137-.053.274-.107.411-.158.975-.366 1.9-.378 2.825-.037l.149.055c.414.153.843.311 1.28.446.438.136.963.264 1.534.19.577-.074 1.124-.301 1.672-.693.937-.669 1.755-1.557 2.576-2.794.604-.91 1.096-1.915 1.461-2.986.09-.264-.008-.555-.238-.711" transform="translate(-1)"/>
    </g>
</svg>
