<svg xmlns="http://www.w3.org/2000/svg" width="24" height="20" viewBox="0 0 24 20">
    <g fill="none" fill-rule="evenodd">
        <path d="M0 0H24V24H0z" transform="translate(0 -2)"/>
        <path fill="#323746" d="M22.888 20.667h-9.776c-.029-.07-.054-.19-.017-.33l1.898-7.31c.005-.021.012-.039.017-.053h5.86l.015.045 2.018 7.312c.038.137.014.263-.015.336zm-15.776-9.88c-.029-.07-.054-.19-.017-.33l1.898-7.311c.005-.02.011-.038.017-.052h5.86l.015.045 2.018 7.311c.038.137.014.263-.015.336H7.112zm3.791 9.544c.038.137.014.263-.015.336H1.112c-.029-.07-.054-.19-.017-.33l1.898-7.31c.005-.021.012-.039.017-.053h5.86l.015.045 2.018 7.312zm13.037-.296l-2.018-7.311c-.14-.507-.504-.844-.912-.844h-3.982c.674 0 1.143-.887.912-1.725l-2.018-7.311c-.14-.507-.504-.844-.912-.844H8.87c-.414 0-.783.348-.918.867l-1.899 7.311c-.216.834.252 1.702.919 1.702H2.87c-.414 0-.783.348-.918.867L.053 20.06c-.216.833.252 1.701.919 1.701h10.056c.674 0 1.143-.887.912-1.725l-2.018-7.311c-.14-.507-.504-.844-.912-.844h5.86c-.414 0-.783.348-.918.867l-1.899 7.312c-.216.833.252 1.701.919 1.701h10.056c.674 0 1.143-.887.912-1.725z" transform="translate(0 -2)"/>
    </g>
</svg>
