<svg xmlns="http://www.w3.org/2000/svg" width="24" height="24" viewBox="0 0 24 24">
    <g fill="none" fill-rule="evenodd">
        <path d="M0 0H24V24H0z"/>
        <path fill="#3B3C3C" d="M16.034 17.01h1.743v-6.13h-1.744v6.13zm-.624 1.277h2.99c.346 0 .625-.285.625-.638v-7.408c0-.353-.28-.638-.624-.638h-2.992c-.344 0-.623.285-.623.638v7.408c0 .352.279.638.623.638zm-7.686-6.4c.606 0 1.1.504 1.1 1.125 0 .62-.494 1.125-1.1 1.125-.607 0-1.1-.505-1.1-1.125s.493-1.126 1.1-1.126zm0 3.527c1.294 0 2.348-1.078 2.348-2.402 0-1.325-1.054-2.402-2.348-2.402-1.295 0-2.348 1.077-2.348 2.402 0 1.324 1.053 2.402 2.348 2.402zm13.45 7.31h-8.386V2.76l8.386 5.24v14.722zm-14.322 0h1.744v-3.29H6.852v3.29zm-3.698-11.73l8.386-4.29v16.02H9.843v-3.928c0-.352-.279-.638-.623-.638H6.228c-.345 0-.624.286-.624.638v3.927h-2.45V10.994zm20.547-2.91l-1.578-.986-9.634-6.019-1.578-.985c-.294-.184-.678-.09-.857.212-.18.3-.087.694.207.877l1.28.8v3.293L.344 11.004c-.308.158-.433.54-.279.856.11.224.33.353.559.353.094 0 .189-.021.278-.067l1.004-.514v11.73c0 .352.279.638.623.638h19.268c.345 0 .624-.286.624-.639V8.78l.629.393c.102.063.214.094.324.094.21 0 .416-.11.534-.306.18-.301.086-.694-.208-.878z"/>
    </g>
</svg>
